<?xml version="1.0" encoding="UTF-8"?>
<!DOCTYPE svg PUBLIC "-//W3C//DTD SVG 1.1//EN" "http://www.w3.org/Graphics/SVG/1.1/DTD/svg11.dtd">
<svg xmlns="http://www.w3.org/2000/svg" xmlns:xlink="http://www.w3.org/1999/xlink" version="1.1" width="72px" height="87px" viewBox="-0.5 -0.5 72 87"><defs/><g><path d="M 35.14 85.5 L 20.28 77.98 L 20.28 31.46 L 0 29.18 L 0 17.68 L 4.53 15.4 L 20.28 19.2 L 20.28 7.52 L 35.14 0 L 50.1 7.52 L 50.1 42.76 L 70.5 42.74 L 70.5 52.77 L 66.75 53.56 L 50.1 52.09 L 50.1 77.98 Z" fill="#f58536" stroke="none" pointer-events="all"/><path d="M 4.53 27.92 L 0 29.18 L 0 17.68 L 4.53 15.4 Z M 35.14 85.5 L 20.28 77.98 L 20.28 31.46 L 24.36 31.92 L 29.58 31.11 L 29.58 21.43 L 20.28 19.2 L 20.28 7.52 L 35.14 0 Z M 66.75 53.56 L 40.68 51.18 L 40.68 42.76 L 66.75 42.76 Z" fill-opacity="0.3" fill="#000000" stroke="none" pointer-events="all"/><path d="M 24.36 31.92 L 0 29.18 L 4.53 27.92 L 29.58 31.11 Z" fill-opacity="0.5" fill="#000000" stroke="none" pointer-events="all"/></g></svg>