<?xml version="1.0" encoding="utf-8"?>
<!-- Generator: Adobe Illustrator 19.1.0, SVG Export Plug-In . SVG Version: 6.00 Build 0)  -->
<svg version="1.1" id="Layer_1" xmlns="http://www.w3.org/2000/svg" xmlns:xlink="http://www.w3.org/1999/xlink" x="0px" y="0px"
	 viewBox="-41 164.9 512 512" style="enable-background:new -41 164.9 512 512;" xml:space="preserve">
<style type="text/css">
	.st0{fill:#FFFFFF;}
	.st1{fill:#7796FC;}
	.st2{fill:#001FFF;}
	.st3{fill:#0C00FF;}
	.st4{fill:#00127F;}
</style>
<g id="XMLID_3097_">
	<path id="XMLID_2868_" class="st0" d="M525.8,301.2c0-9.5,2.1-17.1,6.2-22.9s10-8.7,17.5-8.7c2.8,0,5.3,0.6,7.6,1.9
		c2.3,1.3,4.3,3.1,6.1,5.5v-33.2h19v87.6h-16.6l-1.3-7.4c-1.8,2.8-4,4.9-6.4,6.4c-2.5,1.5-5.3,2.2-8.5,2.2c-7.5,0-13.3-2.8-17.4-8.3
		s-6.2-12.9-6.2-22L525.8,301.2L525.8,301.2z M544.8,302.4c0,4.9,0.7,8.8,2.2,11.5c1.4,2.8,3.9,4.1,7.3,4.1c2,0,3.7-0.4,5.3-1.1
		c1.5-0.7,2.8-1.8,3.7-3.2v-24.6c-1-1.6-2.2-2.8-3.7-3.7c-1.5-0.9-3.2-1.3-5.2-1.3c-3.4,0-5.8,1.6-7.3,4.7s-2.2,7.2-2.2,12.4v1.2
		H544.8z"/>
	<path id="XMLID_2871_" class="st0" d="M625.1,288.6h0.3l7.7-17.9h21.3l-17.6,30.1l18.3,30.7h-21.3l-8.1-18.5h-0.3l-8.1,18.5H596
		l18.3-30.7l-17.7-30.1h21.2L625.1,288.6z"/>
	<path id="XMLID_2873_" class="st0" d="M672.4,331.5v-47.6h-8.8v-13.1h8.8v-6.3c0-7,2.1-12.3,6.3-16.1c4.2-3.8,10.1-5.6,17.8-5.6
		c1.5,0,2.9,0.1,4.4,0.3c1.5,0.2,3.1,0.5,5,0.9l-1.4,14c-1-0.2-2-0.3-2.8-0.4c-0.8-0.1-1.7-0.1-2.9-0.1c-2.4,0-4.2,0.6-5.5,1.9
		c-1.3,1.2-1.9,3-1.9,5.3v6.3h12v13.1h-12v47.6h-19V331.5z"/>
</g>
<g>
	<polygon id="XMLID_56_" class="st1" points="289.7,170.9 46.9,170.9 46.9,670.9 408.2,670.9 408.2,287.7 	"/>
	<polygon id="XMLID_55_" class="st2" points="289.7,170.9 408.2,287.7 289.7,287.7 	"/>
	<rect id="XMLID_54_" x="21.8" y="463.7" class="st3" width="329" height="156.1"/>
	<polygon id="XMLID_53_" class="st4" points="21.8,619.8 46.9,641 46.9,619.8 	"/>
	<g>
		<path class="st0" d="M80.1,562.1c6.6,5.8,15.3,9.8,23,9.8c8.8,0,13.1-3.5,13.1-9.1c0-5.9-5.3-7.8-13.5-11.2l-12.1-5.2
			c-9.8-3.9-19-12-19-25.6c0-15.6,14-27.9,33.4-27.9c10.8,0,22.2,4.3,30.2,12.4l-10.7,13.4c-6.2-4.8-12.1-7.5-19.6-7.5
			c-7.2,0-12,3.2-12,8.5c0,5.8,6.2,7.8,14.4,11.1l12,4.9c11.4,4.6,18.6,12.2,18.6,25.5c0,15.6-13,29.1-35.3,29.1
			c-12.2,0-25.2-4.6-34.8-13.5L80.1,562.1z"/>
		<path class="st0" d="M153.7,494.6H175v36.1h32.4v-36.1h21.2v93.9h-21.2v-39.2H175v39.2h-21.3V494.6z"/>
		<path class="st0" d="M250.5,494.6h34.3c20.4,0,36.7,7.5,36.7,30.2c0,22-16.8,31.8-36.7,31.8h-13v31.8h-21.3V494.6z M283.5,539.8
			c11.7,0,17.3-5.2,17.3-15c0-9.8-6-13.4-17.3-13.4h-11.7v28.4H283.5z"/>
	</g>
</g>
</svg>
